<svg xmlns="http://www.w3.org/2000/svg" width="97" height="90" viewBox="0 0 97 90">
  <g id="heart-icon" transform="translate(-606 -249)">
    <g id="Polygon_1" data-name="Polygon 1" transform="translate(703 339) rotate(180)" fill="#ffa85c">
      <path d="M 84.68875885009766 61.5000114440918 L 12.31125545501709 61.5 C 11.22231101989746 61.5 10.18237781524658 61.19586563110352 9.303877830505371 60.62047576904297 C 8.478233337402344 60.07970809936523 7.808533191680908 59.31518936157227 7.3671555519104 58.40955352783203 C 6.925788879394531 57.50392150878906 6.736244678497314 56.50537490844727 6.819022178649902 55.52187728881836 C 6.907100200653076 54.47542190551758 7.308289051055908 53.46894454956055 7.979233264923096 52.61124420166016 L 44.16797637939453 6.349343299865723 C 45.21754455566406 5.007609844207764 46.79651260375977 4.238098621368408 48.4999885559082 4.238098621368408 C 50.20346832275391 4.238098621368408 51.78242111206055 5.007609844207764 52.83200073242188 6.349343299865723 L 89.020751953125 52.61124420166016 C 89.69170379638672 53.46894454956055 90.09290313720703 54.47542190551758 90.18096923828125 55.52187728881836 C 90.26374816894531 56.50537490844727 90.07421112060547 57.50392150878906 89.63284301757812 58.40955352783203 C 89.19147491455078 59.31518936157227 88.52176666259766 60.07970809936523 87.69612121582031 60.62048721313477 C 86.81763458251953 61.19587707519531 85.77770233154297 61.5000114440918 84.68875885009766 61.5000114440918 Z" stroke="none"/>
      <path d="M 48.4999885559082 4.738090515136719 C 46.95136642456055 4.738090515136719 45.51595306396484 5.437652587890625 44.56178665161133 6.657417297363281 L 8.373046875 52.91932678222656 C 7.167259216308594 54.46074676513672 6.959243774414062 56.43127822875977 7.816612243652344 58.19050216674805 C 8.673988342285156 59.94971466064453 10.35422515869141 60.99999618530273 12.31124877929688 60.99999618530273 L 84.68875122070312 61.00000762939453 C 86.64577484130859 61.00000762939453 88.32601165771484 59.94971466064453 89.18338775634766 58.19049072265625 C 90.04075622558594 56.43126678466797 89.83273315429688 54.46073532104492 88.62693786621094 52.91932678222656 L 52.43818664550781 6.657405853271484 C 51.48402404785156 5.437652587890625 50.04859924316406 4.738090515136719 48.4999885559082 4.738090515136719 M 48.4999885559082 3.738086700439453 C 50.26234436035156 3.738086700439453 52.02470016479492 4.505813598632812 53.22582244873047 6.041267395019531 L 89.41457366943359 52.30318450927734 C 92.49565887451172 56.24186706542969 89.68937683105469 61.99999618530273 84.68875122070312 62.00000762939453 L 12.31124877929688 61.99999618530273 C 7.310615539550781 61.99999618530273 4.504341125488281 56.24187850952148 7.585411071777344 52.30318450927734 L 43.77415466308594 6.041278839111328 C 44.97526931762695 4.505817413330078 46.73763275146484 3.738086700439453 48.4999885559082 3.738086700439453 Z" stroke="none" fill="#ffa85c"/>
    </g>
    <ellipse id="Ellipse_1" data-name="Ellipse 1" cx="23.325" cy="23.5" rx="23.325" ry="23.5" transform="translate(608.9 249)" fill="#ffa85c"/>
    <ellipse id="Ellipse_3" data-name="Ellipse 3" cx="23.325" cy="23.5" rx="23.325" ry="23.5" transform="translate(653.38 249)" fill="#ffa85c"/>
  </g>
</svg>
