<svg xmlns="http://www.w3.org/2000/svg" width="95.336" height="110.391" viewBox="0 0 95.336 110.391">
  <g id="shop-icon" transform="translate(-802 -450)">
    <path id="shopify-brands" d="M88.752,28.924a1.016,1.016,0,0,0-.959-.872c-.436,0-8.113-.174-8.113-.174s-4.709-4.537-6.455-6.283v94.3l27.39-6.8S88.839,29.447,88.752,28.924ZM67.032,21.6a25.425,25.425,0,0,0-1.571-3.838c-2.275-4.361-5.67-6.725-9.684-6.725a3.269,3.269,0,0,0-.872.087c-.087-.174-.262-.262-.349-.436a8.327,8.327,0,0,0-6.716-2.7c-5.23.174-10.46,3.923-14.655,10.641A41.486,41.486,0,0,0,27.34,33.89c-6.019,1.831-10.205,3.14-10.292,3.227-3.051.959-3.14,1.046-3.487,3.923C13.3,43.219,5.28,104.634,5.28,104.634L71.218,116.07V20.549a9.078,9.078,0,0,0-.959.087S69.039,20.985,67.032,21.6ZM54.994,25.348c-3.487,1.046-7.329,2.266-11.079,3.4a26.835,26.835,0,0,1,5.583-10.9,14.03,14.03,0,0,1,3.75-2.792C54.733,18.193,55.081,22.469,54.994,25.348ZM47.84,11.564a5.991,5.991,0,0,1,3.142.776,16.608,16.608,0,0,0-4.1,3.14c-3.315,3.578-5.845,9.153-6.891,14.481-3.142.961-6.283,1.92-9.153,2.792C32.749,24.387,39.814,11.739,47.84,11.564ZM37.722,59.544c.349,5.581,15.091,6.8,15.963,19.975.61,10.382-5.5,17.447-14.306,17.972-10.641.7-16.486-5.583-16.486-5.583l2.266-9.588s5.845,4.45,10.556,4.1a4.212,4.212,0,0,0,4.1-4.45c-.436-7.326-12.474-6.891-13.258-18.929-.7-10.12,5.932-20.325,20.587-21.286,5.666-.349,8.549,1.048,8.549,1.048L52.377,55.355a18.216,18.216,0,0,0-8.2-1.395C37.722,54.4,37.635,58.5,37.722,59.544ZM58.483,24.3a27.751,27.751,0,0,0-1.571-9.508c4.014.785,5.932,5.23,6.806,7.939Q61.362,23.384,58.483,24.3Z" transform="translate(796.72 442.023)" fill="#288599"/>
    <rect id="Rectangle_1" data-name="Rectangle 1" width="43" height="59" transform="translate(818 483)" fill="#288599"/>
    <path id="Path_1" data-name="Path 1" d="M884.886,470.913" fill="#288599" stroke="#707070" stroke-width="1"/>
    <line id="Line_1" data-name="Line 1" x1="17" y1="7" transform="translate(867.5 463.5)" fill="none" stroke="#288599" stroke-linecap="round" stroke-width="2"/>
    <rect id="Rectangle_2" data-name="Rectangle 2" width="11" height="4" transform="matrix(0.921, 0.391, -0.391, 0.921, 873.219, 466.51)" fill="#288599"/>
    <line id="Line_2" data-name="Line 2" y2="94" transform="translate(868.5 464)" fill="none" stroke="#288599" stroke-width="3.1"/>
    <rect id="Rectangle_3" data-name="Rectangle 3" width="3.7" height="5.22" transform="translate(872.765 553.335) rotate(76)" fill="#288599"/>
    <rect id="Rectangle_4" data-name="Rectangle 4" width="3" height="2" transform="translate(867.803 558.451) rotate(-14)" fill="#fff"/>
    <rect id="Rectangle_5" data-name="Rectangle 5" width="2.527" height="2" transform="translate(868.263 558.34) rotate(-14)" fill="#fff"/>
    <rect id="Rectangle_7" data-name="Rectangle 7" width="3" height="2" transform="matrix(0.985, 0.174, -0.174, 0.985, 866.017, 555.73)" fill="#288599"/>
    <rect id="Rectangle_6" data-name="Rectangle 6" width="3" height="2" transform="translate(868.1 556.316) rotate(-14)" fill="#288599"/>
    <rect id="Rectangle_8" data-name="Rectangle 8" width="2.527" height="2" transform="translate(866.476 557.85) rotate(9)" fill="#fff"/>
  </g>
</svg>
